<svg xmlns="http://www.w3.org/2000/svg" id="c21cfaca3f202a6376fe364a65b78c3a9fad3e08f106909ebc923ea6ffa0b9d39963aa8dcb29864942b00c2f1e74f4347426fe3554f6b3e17ed57beb4b2f447c" height="200" width="320">
      <title>Click to pause/unpause, press and hold to scroll through animation</title>
        <g>
          <path d="M0,200 h0.0 v-5.0 h-0.0 Z" fill="black" stroke="none" fill-opacity="0.2"/>
          <polyline points="16.00 20.00 14.40 6.28" stroke="rgb(255, 0, 0)" fill="none" stroke-width="1.00"/>
<polyline points="16.00 20.00 30.20 18.63" stroke="rgb(0, 255, 0)" fill="none" stroke-width="1.00"/>
<polyline points="16.00 20.00 17.65 23.88" stroke="rgb(0, 0, 255)" fill="none" stroke-width="1.00"/>
<polyline points="133.75 113.39 146.91 131.71" stroke="black" fill="none" stroke-width="1.00"/>
<polyline points="171.96 107.30 187.38 124.75" stroke="black" fill="none" stroke-width="1.00"/>
<polyline points="132.88 75.48 146.45 91.73" stroke="black" fill="none" stroke-width="1.00"/>
<polyline points="172.35 70.09 188.32 85.55" stroke="black" fill="none" stroke-width="1.00"/>
<polyline points="133.75 113.39 171.96 107.30" stroke="black" fill="none" stroke-width="1.00"/>
<polyline points="146.91 131.71 187.38 124.75" stroke="black" fill="none" stroke-width="1.00"/>
<polyline points="132.88 75.48 172.35 70.09" stroke="black" fill="none" stroke-width="1.00"/>
<polyline points="146.45 91.73 188.32 85.55" stroke="black" fill="none" stroke-width="1.00"/>
<polyline points="133.75 113.39 132.88 75.48" stroke="black" fill="none" stroke-width="1.00"/>
<polyline points="146.91 131.71 146.45 91.73" stroke="black" fill="none" stroke-width="1.00"/>
<polyline points="171.96 107.30 172.35 70.09" stroke="black" fill="none" stroke-width="1.00"/>
<polyline points="187.38 124.75 188.32 85.55" stroke="black" fill="none" stroke-width="1.00"/>
<polyline points="160.00 100.00 160.00 100.00 160.00 100.00 160.00 100.00 160.00 100.00 160.00 100.00 160.00 100.00 160.00 100.00 160.00 100.00" stroke="black" fill="none" stroke-width="0.20"/>
<polyline points="149.86 115.10 149.36 59.46 171.79 82.44 171.19 142.65 149.86 115.10" stroke="black" fill="none" stroke-width="1.00"/>
          <animate
              attributeName="display"
              values="none;inline;none;none"
              keyTimes="0;0.0;0.1111111111111111;1"
              dur="3s"
              begin="0s"
              repeatCount="indefinite" />
     </g>
    
<g>
          <path d="M0,200 h35.55555555555556 v-5.0 h-35.55555555555556 Z" fill="black" stroke="none" fill-opacity="0.2"/>
          <polyline points="16.00 20.00 14.40 6.28" stroke="rgb(255, 0, 0)" fill="none" stroke-width="1.00"/>
<polyline points="16.00 20.00 30.20 18.63" stroke="rgb(0, 255, 0)" fill="none" stroke-width="1.00"/>
<polyline points="16.00 20.00 17.65 23.88" stroke="rgb(0, 0, 255)" fill="none" stroke-width="1.00"/>
<polyline points="133.75 113.39 146.91 131.71" stroke="black" fill="none" stroke-width="1.00"/>
<polyline points="171.96 107.30 187.38 124.75" stroke="black" fill="none" stroke-width="1.00"/>
<polyline points="132.88 75.48 146.45 91.73" stroke="black" fill="none" stroke-width="1.00"/>
<polyline points="172.35 70.09 188.32 85.55" stroke="black" fill="none" stroke-width="1.00"/>
<polyline points="133.75 113.39 171.96 107.30" stroke="black" fill="none" stroke-width="1.00"/>
<polyline points="146.91 131.71 187.38 124.75" stroke="black" fill="none" stroke-width="1.00"/>
<polyline points="132.88 75.48 172.35 70.09" stroke="black" fill="none" stroke-width="1.00"/>
<polyline points="146.45 91.73 188.32 85.55" stroke="black" fill="none" stroke-width="1.00"/>
<polyline points="133.75 113.39 132.88 75.48" stroke="black" fill="none" stroke-width="1.00"/>
<polyline points="146.91 131.71 146.45 91.73" stroke="black" fill="none" stroke-width="1.00"/>
<polyline points="171.96 107.30 172.35 70.09" stroke="black" fill="none" stroke-width="1.00"/>
<polyline points="187.38 124.75 188.32 85.55" stroke="black" fill="none" stroke-width="1.00"/>
<polyline points="160.00 100.00 160.00 100.00 160.00 100.00 160.00 100.00 160.00 100.00 160.00 100.00 160.00 100.00 160.00 100.00 160.00 100.00" stroke="black" fill="none" stroke-width="0.20"/>
<polyline points="140.77 117.43 139.83 61.39 181.95 80.11 180.83 139.87 140.77 117.43" stroke="black" fill="none" stroke-width="1.00"/>
          <animate
              attributeName="display"
              values="none;inline;none;none"
              keyTimes="0;0.1111111111111111;0.2222222222222222;1"
              dur="3s"
              begin="0s"
              repeatCount="indefinite" />
     </g>
    
<g>
          <path d="M0,200 h71.11111111111111 v-5.0 h-71.11111111111111 Z" fill="black" stroke="none" fill-opacity="0.2"/>
          <polyline points="16.00 20.00 14.40 6.28" stroke="rgb(255, 0, 0)" fill="none" stroke-width="1.00"/>
<polyline points="16.00 20.00 30.20 18.63" stroke="rgb(0, 255, 0)" fill="none" stroke-width="1.00"/>
<polyline points="16.00 20.00 17.65 23.88" stroke="rgb(0, 0, 255)" fill="none" stroke-width="1.00"/>
<polyline points="133.75 113.39 146.91 131.71" stroke="black" fill="none" stroke-width="1.00"/>
<polyline points="171.96 107.30 187.38 124.75" stroke="black" fill="none" stroke-width="1.00"/>
<polyline points="132.88 75.48 146.45 91.73" stroke="black" fill="none" stroke-width="1.00"/>
<polyline points="172.35 70.09 188.32 85.55" stroke="black" fill="none" stroke-width="1.00"/>
<polyline points="133.75 113.39 171.96 107.30" stroke="black" fill="none" stroke-width="1.00"/>
<polyline points="146.91 131.71 187.38 124.75" stroke="black" fill="none" stroke-width="1.00"/>
<polyline points="132.88 75.48 172.35 70.09" stroke="black" fill="none" stroke-width="1.00"/>
<polyline points="146.45 91.73 188.32 85.55" stroke="black" fill="none" stroke-width="1.00"/>
<polyline points="133.75 113.39 132.88 75.48" stroke="black" fill="none" stroke-width="1.00"/>
<polyline points="146.91 131.71 146.45 91.73" stroke="black" fill="none" stroke-width="1.00"/>
<polyline points="171.96 107.30 172.35 70.09" stroke="black" fill="none" stroke-width="1.00"/>
<polyline points="187.38 124.75 188.32 85.55" stroke="black" fill="none" stroke-width="1.00"/>
<polyline points="160.00 100.00 160.00 100.00 160.00 100.00 160.00 100.00 160.00 100.00 160.00 100.00 160.00 100.00 160.00 100.00 160.00 100.00" stroke="black" fill="none" stroke-width="0.20"/>
<polyline points="133.74 121.07 132.43 64.42 189.12 76.63 187.67 135.70 133.74 121.07" stroke="black" fill="none" stroke-width="1.00"/>
          <animate
              attributeName="display"
              values="none;inline;none;none"
              keyTimes="0;0.2222222222222222;0.3333333333333333;1"
              dur="3s"
              begin="0s"
              repeatCount="indefinite" />
     </g>
    
<g>
          <path d="M0,200 h106.66666666666666 v-5.0 h-106.66666666666666 Z" fill="black" stroke="none" fill-opacity="0.2"/>
          <polyline points="16.00 20.00 14.40 6.28" stroke="rgb(255, 0, 0)" fill="none" stroke-width="1.00"/>
<polyline points="16.00 20.00 30.20 18.63" stroke="rgb(0, 255, 0)" fill="none" stroke-width="1.00"/>
<polyline points="16.00 20.00 17.65 23.88" stroke="rgb(0, 0, 255)" fill="none" stroke-width="1.00"/>
<polyline points="133.75 113.39 146.91 131.71" stroke="black" fill="none" stroke-width="1.00"/>
<polyline points="171.96 107.30 187.38 124.75" stroke="black" fill="none" stroke-width="1.00"/>
<polyline points="132.88 75.48 146.45 91.73" stroke="black" fill="none" stroke-width="1.00"/>
<polyline points="172.35 70.09 188.32 85.55" stroke="black" fill="none" stroke-width="1.00"/>
<polyline points="133.75 113.39 171.96 107.30" stroke="black" fill="none" stroke-width="1.00"/>
<polyline points="146.91 131.71 187.38 124.75" stroke="black" fill="none" stroke-width="1.00"/>
<polyline points="132.88 75.48 172.35 70.09" stroke="black" fill="none" stroke-width="1.00"/>
<polyline points="146.45 91.73 188.32 85.55" stroke="black" fill="none" stroke-width="1.00"/>
<polyline points="133.75 113.39 132.88 75.48" stroke="black" fill="none" stroke-width="1.00"/>
<polyline points="146.91 131.71 146.45 91.73" stroke="black" fill="none" stroke-width="1.00"/>
<polyline points="171.96 107.30 172.35 70.09" stroke="black" fill="none" stroke-width="1.00"/>
<polyline points="187.38 124.75 188.32 85.55" stroke="black" fill="none" stroke-width="1.00"/>
<polyline points="160.00 100.00 160.00 100.00 160.00 100.00 160.00 100.00 160.00 100.00 160.00 100.00 160.00 100.00 160.00 100.00 160.00 100.00" stroke="black" fill="none" stroke-width="0.20"/>
<polyline points="129.63 125.68 128.09 68.26 192.52 72.50 190.92 130.76 129.63 125.68" stroke="black" fill="none" stroke-width="1.00"/>
          <animate
              attributeName="display"
              values="none;inline;none;none"
              keyTimes="0;0.3333333333333333;0.4444444444444444;1"
              dur="3s"
              begin="0s"
              repeatCount="indefinite" />
     </g>
    
<g>
          <path d="M0,200 h142.22222222222223 v-5.0 h-142.22222222222223 Z" fill="black" stroke="none" fill-opacity="0.2"/>
          <polyline points="16.00 20.00 14.40 6.28" stroke="rgb(255, 0, 0)" fill="none" stroke-width="1.00"/>
<polyline points="16.00 20.00 30.20 18.63" stroke="rgb(0, 255, 0)" fill="none" stroke-width="1.00"/>
<polyline points="16.00 20.00 17.65 23.88" stroke="rgb(0, 0, 255)" fill="none" stroke-width="1.00"/>
<polyline points="133.75 113.39 146.91 131.71" stroke="black" fill="none" stroke-width="1.00"/>
<polyline points="171.96 107.30 187.38 124.75" stroke="black" fill="none" stroke-width="1.00"/>
<polyline points="132.88 75.48 146.45 91.73" stroke="black" fill="none" stroke-width="1.00"/>
<polyline points="172.35 70.09 188.32 85.55" stroke="black" fill="none" stroke-width="1.00"/>
<polyline points="133.75 113.39 171.96 107.30" stroke="black" fill="none" stroke-width="1.00"/>
<polyline points="146.91 131.71 187.38 124.75" stroke="black" fill="none" stroke-width="1.00"/>
<polyline points="132.88 75.48 172.35 70.09" stroke="black" fill="none" stroke-width="1.00"/>
<polyline points="146.45 91.73 188.32 85.55" stroke="black" fill="none" stroke-width="1.00"/>
<polyline points="133.75 113.39 132.88 75.48" stroke="black" fill="none" stroke-width="1.00"/>
<polyline points="146.91 131.71 146.45 91.73" stroke="black" fill="none" stroke-width="1.00"/>
<polyline points="171.96 107.30 172.35 70.09" stroke="black" fill="none" stroke-width="1.00"/>
<polyline points="187.38 124.75 188.32 85.55" stroke="black" fill="none" stroke-width="1.00"/>
<polyline points="160.00 100.00 160.00 100.00 160.00 100.00 160.00 100.00 160.00 100.00 160.00 100.00 160.00 100.00 160.00 100.00 160.00 100.00" stroke="black" fill="none" stroke-width="0.20"/>
<polyline points="129.08 130.76 127.48 72.50 191.91 68.26 190.37 125.68 129.08 130.76" stroke="black" fill="none" stroke-width="1.00"/>
          <animate
              attributeName="display"
              values="none;inline;none;none"
              keyTimes="0;0.4444444444444444;0.5555555555555556;1"
              dur="3s"
              begin="0s"
              repeatCount="indefinite" />
     </g>
    
<g>
          <path d="M0,200 h177.77777777777777 v-5.0 h-177.77777777777777 Z" fill="black" stroke="none" fill-opacity="0.2"/>
          <polyline points="16.00 20.00 14.40 6.28" stroke="rgb(255, 0, 0)" fill="none" stroke-width="1.00"/>
<polyline points="16.00 20.00 30.20 18.63" stroke="rgb(0, 255, 0)" fill="none" stroke-width="1.00"/>
<polyline points="16.00 20.00 17.65 23.88" stroke="rgb(0, 0, 255)" fill="none" stroke-width="1.00"/>
<polyline points="133.75 113.39 146.91 131.71" stroke="black" fill="none" stroke-width="1.00"/>
<polyline points="171.96 107.30 187.38 124.75" stroke="black" fill="none" stroke-width="1.00"/>
<polyline points="132.88 75.48 146.45 91.73" stroke="black" fill="none" stroke-width="1.00"/>
<polyline points="172.35 70.09 188.32 85.55" stroke="black" fill="none" stroke-width="1.00"/>
<polyline points="133.75 113.39 171.96 107.30" stroke="black" fill="none" stroke-width="1.00"/>
<polyline points="146.91 131.71 187.38 124.75" stroke="black" fill="none" stroke-width="1.00"/>
<polyline points="132.88 75.48 172.35 70.09" stroke="black" fill="none" stroke-width="1.00"/>
<polyline points="146.45 91.73 188.32 85.55" stroke="black" fill="none" stroke-width="1.00"/>
<polyline points="133.75 113.39 132.88 75.48" stroke="black" fill="none" stroke-width="1.00"/>
<polyline points="146.91 131.71 146.45 91.73" stroke="black" fill="none" stroke-width="1.00"/>
<polyline points="171.96 107.30 172.35 70.09" stroke="black" fill="none" stroke-width="1.00"/>
<polyline points="187.38 124.75 188.32 85.55" stroke="black" fill="none" stroke-width="1.00"/>
<polyline points="160.00 100.00 160.00 100.00 160.00 100.00 160.00 100.00 160.00 100.00 160.00 100.00 160.00 100.00 160.00 100.00 160.00 100.00" stroke="black" fill="none" stroke-width="0.20"/>
<polyline points="132.33 135.70 130.88 76.63 187.57 64.42 186.26 121.07 132.33 135.70" stroke="black" fill="none" stroke-width="1.00"/>
          <animate
              attributeName="display"
              values="none;inline;none;none"
              keyTimes="0;0.5555555555555556;0.6666666666666666;1"
              dur="3s"
              begin="0s"
              repeatCount="indefinite" />
     </g>
    
<g>
          <path d="M0,200 h213.33333333333331 v-5.0 h-213.33333333333331 Z" fill="black" stroke="none" fill-opacity="0.2"/>
          <polyline points="16.00 20.00 14.40 6.28" stroke="rgb(255, 0, 0)" fill="none" stroke-width="1.00"/>
<polyline points="16.00 20.00 30.20 18.63" stroke="rgb(0, 255, 0)" fill="none" stroke-width="1.00"/>
<polyline points="16.00 20.00 17.65 23.88" stroke="rgb(0, 0, 255)" fill="none" stroke-width="1.00"/>
<polyline points="133.75 113.39 146.91 131.71" stroke="black" fill="none" stroke-width="1.00"/>
<polyline points="171.96 107.30 187.38 124.75" stroke="black" fill="none" stroke-width="1.00"/>
<polyline points="132.88 75.48 146.45 91.73" stroke="black" fill="none" stroke-width="1.00"/>
<polyline points="172.35 70.09 188.32 85.55" stroke="black" fill="none" stroke-width="1.00"/>
<polyline points="133.75 113.39 171.96 107.30" stroke="black" fill="none" stroke-width="1.00"/>
<polyline points="146.91 131.71 187.38 124.75" stroke="black" fill="none" stroke-width="1.00"/>
<polyline points="132.88 75.48 172.35 70.09" stroke="black" fill="none" stroke-width="1.00"/>
<polyline points="146.45 91.73 188.32 85.55" stroke="black" fill="none" stroke-width="1.00"/>
<polyline points="133.75 113.39 132.88 75.48" stroke="black" fill="none" stroke-width="1.00"/>
<polyline points="146.91 131.71 146.45 91.73" stroke="black" fill="none" stroke-width="1.00"/>
<polyline points="171.96 107.30 172.35 70.09" stroke="black" fill="none" stroke-width="1.00"/>
<polyline points="187.38 124.75 188.32 85.55" stroke="black" fill="none" stroke-width="1.00"/>
<polyline points="160.00 100.00 160.00 100.00 160.00 100.00 160.00 100.00 160.00 100.00 160.00 100.00 160.00 100.00 160.00 100.00 160.00 100.00" stroke="black" fill="none" stroke-width="0.20"/>
<polyline points="139.17 139.87 138.05 80.11 180.17 61.39 179.23 117.43 139.17 139.87" stroke="black" fill="none" stroke-width="1.00"/>
          <animate
              attributeName="display"
              values="none;inline;none;none"
              keyTimes="0;0.6666666666666666;0.7777777777777777;1"
              dur="3s"
              begin="0s"
              repeatCount="indefinite" />
     </g>
    
<g>
          <path d="M0,200 h248.88888888888886 v-5.0 h-248.88888888888886 Z" fill="black" stroke="none" fill-opacity="0.2"/>
          <polyline points="16.00 20.00 14.40 6.28" stroke="rgb(255, 0, 0)" fill="none" stroke-width="1.00"/>
<polyline points="16.00 20.00 30.20 18.63" stroke="rgb(0, 255, 0)" fill="none" stroke-width="1.00"/>
<polyline points="16.00 20.00 17.65 23.88" stroke="rgb(0, 0, 255)" fill="none" stroke-width="1.00"/>
<polyline points="133.75 113.39 146.91 131.71" stroke="black" fill="none" stroke-width="1.00"/>
<polyline points="171.96 107.30 187.38 124.75" stroke="black" fill="none" stroke-width="1.00"/>
<polyline points="132.88 75.48 146.45 91.73" stroke="black" fill="none" stroke-width="1.00"/>
<polyline points="172.35 70.09 188.32 85.55" stroke="black" fill="none" stroke-width="1.00"/>
<polyline points="133.75 113.39 171.96 107.30" stroke="black" fill="none" stroke-width="1.00"/>
<polyline points="146.91 131.71 187.38 124.75" stroke="black" fill="none" stroke-width="1.00"/>
<polyline points="132.88 75.48 172.35 70.09" stroke="black" fill="none" stroke-width="1.00"/>
<polyline points="146.45 91.73 188.32 85.55" stroke="black" fill="none" stroke-width="1.00"/>
<polyline points="133.75 113.39 132.88 75.48" stroke="black" fill="none" stroke-width="1.00"/>
<polyline points="146.91 131.71 146.45 91.73" stroke="black" fill="none" stroke-width="1.00"/>
<polyline points="171.96 107.30 172.35 70.09" stroke="black" fill="none" stroke-width="1.00"/>
<polyline points="187.38 124.75 188.32 85.55" stroke="black" fill="none" stroke-width="1.00"/>
<polyline points="160.00 100.00 160.00 100.00 160.00 100.00 160.00 100.00 160.00 100.00 160.00 100.00 160.00 100.00 160.00 100.00 160.00 100.00" stroke="black" fill="none" stroke-width="0.20"/>
<polyline points="148.81 142.65 148.21 82.44 170.64 59.46 170.14 115.10 148.81 142.65" stroke="black" fill="none" stroke-width="1.00"/>
          <animate
              attributeName="display"
              values="none;inline;none;none"
              keyTimes="0;0.7777777777777777;0.8888888888888888;1"
              dur="3s"
              begin="0s"
              repeatCount="indefinite" />
     </g>
    
<g>
          <path d="M0,200 h284.44444444444446 v-5.0 h-284.44444444444446 Z" fill="black" stroke="none" fill-opacity="0.2"/>
          <polyline points="16.00 20.00 14.40 6.28" stroke="rgb(255, 0, 0)" fill="none" stroke-width="1.00"/>
<polyline points="16.00 20.00 30.20 18.63" stroke="rgb(0, 255, 0)" fill="none" stroke-width="1.00"/>
<polyline points="16.00 20.00 17.65 23.88" stroke="rgb(0, 0, 255)" fill="none" stroke-width="1.00"/>
<polyline points="133.75 113.39 146.91 131.71" stroke="black" fill="none" stroke-width="1.00"/>
<polyline points="171.96 107.30 187.38 124.75" stroke="black" fill="none" stroke-width="1.00"/>
<polyline points="132.88 75.48 146.45 91.73" stroke="black" fill="none" stroke-width="1.00"/>
<polyline points="172.35 70.09 188.32 85.55" stroke="black" fill="none" stroke-width="1.00"/>
<polyline points="133.75 113.39 171.96 107.30" stroke="black" fill="none" stroke-width="1.00"/>
<polyline points="146.91 131.71 187.38 124.75" stroke="black" fill="none" stroke-width="1.00"/>
<polyline points="132.88 75.48 172.35 70.09" stroke="black" fill="none" stroke-width="1.00"/>
<polyline points="146.45 91.73 188.32 85.55" stroke="black" fill="none" stroke-width="1.00"/>
<polyline points="133.75 113.39 132.88 75.48" stroke="black" fill="none" stroke-width="1.00"/>
<polyline points="146.91 131.71 146.45 91.73" stroke="black" fill="none" stroke-width="1.00"/>
<polyline points="171.96 107.30 172.35 70.09" stroke="black" fill="none" stroke-width="1.00"/>
<polyline points="187.38 124.75 188.32 85.55" stroke="black" fill="none" stroke-width="1.00"/>
<polyline points="160.00 100.00 160.00 100.00 160.00 100.00 160.00 100.00 160.00 100.00 160.00 100.00 160.00 100.00 160.00 100.00 160.00 100.00" stroke="black" fill="none" stroke-width="0.20"/>
<polyline points="160.00 143.63 160.00 83.26 160.00 58.80 160.00 114.30 160.00 143.63" stroke="black" fill="none" stroke-width="1.00"/>
          <animate
              attributeName="display"
              values="none;inline;none;none"
              keyTimes="0;0.8888888888888888;1.0;1"
              dur="3s"
              begin="0s"
              repeatCount="indefinite" />
     </g>
    
        
      <script type="text/ecmascript"><![CDATA[
          function mouse_move_c21cfaca3f202a6376fe364a65b78c3a9fad3e08f106909ebc923ea6ffa0b9d39963aa8dcb29864942b00c2f1e74f4347426fe3554f6b3e17ed57beb4b2f447c(evt) {
              if (evt.buttons > 0) {
                    var root = document.getElementById('c21cfaca3f202a6376fe364a65b78c3a9fad3e08f106909ebc923ea6ffa0b9d39963aa8dcb29864942b00c2f1e74f4347426fe3554f6b3e17ed57beb4b2f447c');
                    root.pauseAnimations();
                    var new_time = 3 * evt.layerX / evt.target.getBBox().width;
                    root.setCurrentTime(new_time);
              }
          }
          function on_click_c21cfaca3f202a6376fe364a65b78c3a9fad3e08f106909ebc923ea6ffa0b9d39963aa8dcb29864942b00c2f1e74f4347426fe3554f6b3e17ed57beb4b2f447c(evt) {
              var root = document.getElementById('c21cfaca3f202a6376fe364a65b78c3a9fad3e08f106909ebc923ea6ffa0b9d39963aa8dcb29864942b00c2f1e74f4347426fe3554f6b3e17ed57beb4b2f447c');
              //console.log(root);
              root.animationsPaused() ? root.unpauseAnimations() : root.pauseAnimations();
          }
        ]]>
      </script>

    
        <rect x="1" y="1" rx="5" ry="5" onmousemove='mouse_move_c21cfaca3f202a6376fe364a65b78c3a9fad3e08f106909ebc923ea6ffa0b9d39963aa8dcb29864942b00c2f1e74f4347426fe3554f6b3e17ed57beb4b2f447c(evt)' onclick='on_click_c21cfaca3f202a6376fe364a65b78c3a9fad3e08f106909ebc923ea6ffa0b9d39963aa8dcb29864942b00c2f1e74f4347426fe3554f6b3e17ed57beb4b2f447c(evt)' width="318" height="198" stroke="gray" fill="transparent" stroke-width="1"/>
    </svg>
    